<svg width="960" height="960" viewBox="0 0 254 254" xmlns="http://www.w3.org/2000/svg"
   ><g transform="translate(0,-37.708335)"
     ><circle style="fill:#ff0;fill-opacity:1;stroke:#ff0;stroke-width:.32106" cx="112.44791" cy="150.15623" r="112.28738" /><text style="font-style:normal;font-weight:400;font-size:8.46667px;line-height:1.25;font-family:sans-serif;letter-spacing:0;word-spacing:0;fill:#000;fill-opacity:1;stroke:none;stroke-width:.264583" x="55.068588" y="225.13925"
       ><tspan x="55.068588" y="225.13925" style="font-size:141.111px;stroke-width:.264583"
         /></text><flowRoot style="font-style:normal;font-weight:400;font-size:32px;line-height:1.25;font-family:sans-serif;letter-spacing:0;word-spacing:0;fill:#000;fill-opacity:1;stroke:none"
       ><flowRegion
         ><rect width="105.05586" height="96.974648" x="210.11172" y="246.62926"
           /></flowRegion><flowPara
         /></flowRoot><flowRoot style="font-style:normal;font-weight:400;font-size:32px;line-height:1.25;font-family:sans-serif;letter-spacing:0;word-spacing:0;fill:#000;fill-opacity:1;stroke:none"
       ><flowRegion
         ><rect width="137.38075" height="107.07617" x="408.10162" y="109.2485"
           /></flowRegion><flowPara
         /></flowRoot><path d="m112.30486 248.54827a98.392024 98.392026.0 1 1 0-196.784039 98.392027 98.392024.0 0 1 0 196.784039zm0 14.05581a112.44792 112.44792.0 1 0 0-224.895658 112.44792 112.44792.0 0 0 0 224.895658z" style="stroke-width:14.056"
       /><path d="m60.564194 173.24099a7.083333 7.083333.0 0 1 9.675811 2.59148 49.554999 49.554999.0 0 0 42.953515 24.79165 49.554999 49.554999.0 0 0 42.95298-24.79165 7.083333 7.083333.0 1 1 12.26837 7.08328 63.721665 63.721665.0 0 1-55.22135 31.87485 63.721665 63.721665.0 0 1-55.221894-31.87485 7.083333 7.083333.0 0 1 2.586131-9.6758zm38.462295-43.44933c0 11.73028-6.346485 21.25028-14.166485 21.25028s-14.166485-9.52-14.166485-21.25028c0-11.72974 6.346485-21.24974 14.166485-21.24974s14.166485 9.52 14.166485 21.24974zm56.667031.0c0 11.73028-6.34702 21.25028-14.16702 21.25028-7.82.0-14.1665-9.52-14.1665-21.25028.0-11.72974 6.3465-21.24974 14.1665-21.24974s14.16702 9.52 14.16702 21.24974z" style="stroke-width:14.1665"
       /><path style="fill:#000;fill-opacity:0;stroke-width:.850444" d="m179.40068 283.41649c-.74842-.58466-3.18656-4.50734-5.41808-8.71704-2.23152-4.20968-8.58093-14.78046-14.10981-23.49061-5.52887-8.71015-10.05249-16.41295-10.05249-17.11733.0-.7044.61057-1.78746 1.35682-2.40678 1.8627-1.54589 3.39182-.51021 14.22518 9.63483 8.8983 8.33295 11.5671 9.71771 14.01354 7.27129.75348-.75349 1.02054-8.54222 1.02054-29.76552.0-27.61105.0671-28.81209 1.70089-30.44586 2.04329-2.04329 4.07041-2.15884 6.61435-.37701 1.87632 1.31422 1.89012 1.49696 1.89012 25.02733.0 25.5947.13536 26.37626 4.5681 26.37626 3.43398.0 3.93635-1.48698 3.93635-11.65106v-9.61h3.66447c5.85645.0 6.38126.85268 6.69353 10.87526.28664 9.20028.79049 10.34458 4.56735 10.37279 2.99457.0224 3.78448-1.69673 3.78448-8.23628v-6.20824h3.06058c2.32722.0 3.65179.63289 5.5279 2.64127 2.17298 2.32617 2.46733 3.26972 2.46733 7.90913.0 5.58992.90007 7.30892 3.827 7.30892 2.77373.0 3.82701-1.68525 3.82701-6.12319.0-3.98228.0633-4.08213 2.58999-4.08213 3.56897.0 6.77606 3.32597 6.72812 6.97749-.0568 4.32699-2.25103 21.30538-2.99996 23.21324-1.19779 3.0513-11.53325 19.53216-12.93324 20.62324-1.95763 1.5257-48.59708 1.5257-50.55007.0z"
       /><path d="m181.76375 180.10388a5.958829 5.5802232.0 0 1 5.95883 5.58028v46.50198a3.9725524 3.7201486.0 0 0 7.9451.0v-18.8463l.68317-.0281c2.5185-.0845 5.06104-.0561 6.4832.19686 1.0645.19684 2.33593.71426 3.55944 1.35542.61167.31214 1.19182 1.0939 1.19182 2.33684v14.98472a3.972565 3.7201605.0 0 0 7.94513.0v-11.64425l.84201-.0845c2.5107-.16873 4.63995-.0845 5.62514.29809.93748.34305 2.38338 1.54099 3.86133 3.19928.64351.71429 1.19184 1.41448 1.58911 1.92629v10.01466a3.9725524 3.7201486.0 1 0 7.9451.0v-7.44048h2.71731a7.9451052 7.4402975.0 0 1 7.90539 8.18457l-2.15305 20.20029a19.862763 18.600745.0 0 1-2.51852 7.37328l-11.08342 18.16912a3.9725524 3.7201486.0 0 1-3.44818 1.87567H176.7426a3.9725524 3.7201486.0 0 1-3.55145-2.05283l-9.78838-18.3401-19.9581-31.13761a4.1076193 3.8466339.0 0 1 6.42759-4.69505l19.1477 17.93123a3.9725524 3.7201486.0 0 0 6.78514-2.62649v-57.66226a5.958829 5.5802232.0 0 1 5.95878-5.58031zm13.90393 25.78819v-20.20791a13.903933 13.020521.0 1 0-27.80784.0v48.6819l-12.37056-11.58464a12.052726 11.286931.0 0 0-18.85373 13.77948l19.79126 30.8997 9.65331 18.07972a11.917658 11.160446.0 0 0 10.66234 6.16801h50.07005a11.917658 11.160446.0 0 0 10.34451-5.62472l11.08343-18.16182a27.807868 26.041042.0 0 0 3.52762-10.33469l2.15307-20.20029a15.89021 14.880594.0 0 0-15.81076-16.36125h-4.61609a40.631266 38.04968.0 0 0-1.54918-1.84474c-1.51765-1.70412-4.05201-4.22599-6.99171-5.3272-2.89207-1.08545-6.72153-.9814-9.20042-.80425l-1.0489.0845a10.010833 9.3747751.0 0 0-4.44928-4.7766 20.911516 19.582863.0 0 0-5.86346-2.14282c-2.46294-.46119-5.87142-.43024-8.34237-.34306zm16.63707 15.06655z" style="fill:#000;fill-opacity:1;stroke-width:7.68857"
       /><path style="fill:#fff;fill-opacity:0;stroke-width:.425223" d="m178.88821 283.70896c-.38375-.29202-2.90643-4.65399-5.60596-9.69327-2.78849-5.20535-8.89775-15.38055-14.14591-23.56055-5.08073-7.91902-9.43924-14.93219-9.68558-15.58482-.37103-.98298-.29733-1.38882.42949-2.36503 1.22352-1.64335 2.79421-2.13341 4.37409-1.36473.69126.33634 5.34183 4.45809 10.3346 9.15947 4.99278 4.70138 9.52083 8.78507 10.06235 9.07489 1.31231.70233 3.51185.24898 4.64521-.95743.90843-.96698.9098-1.00654 1.02476-29.72805.11375-28.41858.12567-28.77404 1.00409-29.96011.48893-.66017 1.68487-1.48143 2.65764-1.82502 1.55566-.54948 1.9817-.54948 3.53736.0.97277.34359 2.16871 1.16474 2.65764 1.82478.87062 1.17529.89336 1.69162 1.10158 25.01633.2071 23.19881.23466 23.83238 1.06306 24.438 1.86592 1.36414 4.22408 1.25079 5.75133-.27644.78627-.78627.83963-1.44768.83963-10.40712v-9.56749h3.39318c3.69195.0 6.55357.84836 7.2498 2.14929.22706.42424.41282 4.38349.41282 8.79834.0 7.39319.066 8.09784.83607 8.92439 1.09651 1.17696 2.30989 1.5317 4.09419 1.19697 2.46899-.46318 2.91479-1.67206 3.08256-8.35902l.14618-5.82674 1.3421-.24178c2.85878-.51504 5.9227.89983 8.08354 3.73284 1.06774 1.39985 1.12519 1.72773 1.12519 6.42155.0 6.39512.7123 7.82598 3.9096 7.8535 1.06112.009 1.95803-.31929 2.76395-1.01206 1.13774-.97801 1.19986-1.22453 1.33923-5.31527l.14615-4.28969 1.12952.002c3.0608.007 6.25229 1.82183 7.52314 4.27937.83401 1.61281.79732 2.80258-.44312 14.36965-.82229 7.66772-1.29081 10.48128-2.05348 12.33143-1.07365 2.6046-10.86212 18.80655-12.30218 20.36269l-.88539.95675-25.12035-.0135c-19.40834-.0101-25.27901-.13425-25.81808-.54448z"
       /><path style="fill:#fff;fill-opacity:1;stroke:#fff;stroke-width:.425223;stroke-opacity:1" d="m175.65483 283.79832c-1.6541-.4855-1.36797-.0462-7.44926-11.43758-2.88538-5.40485-8.78548-15.22641-14.43256-24.02502-5.25358-8.18551-9.7751-15.30072-10.04782-15.81154-1.36268-2.55251.32493-5.23693 3.29229-5.23693 1.63153.0 2.10996.38469 11.76669 9.46118 5.5363 5.20365 10.47237 9.69359 10.96904 9.97764 1.63877.93724 3.6189.6601 4.97536-.69636l1.24297-1.24296V214.7548c0-33.14373-.11532-31.70536 2.67829-33.4087.8457-.51566 2.12873-.83065 3.38738-.83164 1.71503-.001 2.26989.22182 3.6144 1.45371l1.58834 1.45532.21261 25.01474c.15997 18.82089.34342 25.24321.74088 25.93743.7791 1.36082 3.14395 2.02846 5.00703 1.41358 2.57125-.84858 2.75656-1.69025 2.75656-12.52047v-9.58861h3.63134c2.86484.0 4.00921.19156 5.42159.90756.98465.49916 1.93084 1.12105 2.10267 1.38197.17182.26092.31533 4.26614.31891 8.90048.004 4.95268.187 8.76333.44434 9.24418 1.22034 2.2802 4.932 2.59236 6.82927.57433.97605-1.03817 1.03163-1.40167 1.16923-7.64748l.14447-6.5575h1.82219c3.52649.0 4.57885.4509 7.13747 3.05809l2.44504 2.49146v5.74899c0 5.5369.0385 5.7875 1.04373 6.79271 1.47466 1.47466 4.51712 1.47466 5.99178.0.97619-.97619 1.04373-1.33388 1.04373-5.52788v-4.48415l1.59459.002c5.01238.008 8.61064 3.06278 8.61086 7.31158 16e-5 3.26992-2.13857 21.75335-2.77691 23.99878-.34166 1.20177-2.75632 5.69849-5.36592 9.9927-2.60961 4.29421-5.41741 8.92473-6.23957 10.29003-2.53727 4.21345-.14529 3.88565-28.97135 3.97044-15.02714.0442-25.88078-.0901-26.69966-.3305z"
       /></g></svg>