<svg version="1.0" xmlns="http://www.w3.org/2000/svg" width="700pt" height="700pt" viewBox="0 0 700 700"><g transform="translate(0.000000,700.000000) scale(0.100000,-0.100000)" fill="#000" stroke="none"><path d="M2830 6990c-618-59-1193-291-1675-676-145-116-378-351-489-494C64 5045-141 4081 97 3136c223-889 847-1646 1685-2040 697-329 1512-383 2249-150 45 14 85 22 89 17 36-39 215-340 332-559 88-165 157-283 179-305 20-20 63-49 95-65l59-29h775 775l56 26c32 15 74 44 95 66 22 21 114 162 205 313 187 308 2e2 332 223 410 22 71 89 690 83 755-9 87-44 161-108 229-95 102-209 146-376 146h-74l-72 73c-50 51-93 84-141 107-65 32-76 34-192 38-68 3-124 8-124 13 0 17-83 1e2-116 117l-32 17 50 90c112 2e2 221 471 283 707 279 1062-25 2194-8e2 2973-477 481-1088 785-1773 886-158 23-538 33-692 19zm650-405c583-90 1086-338 1494-735 239-232 407-463 551-754 186-378 276-762 277-1186 0-5e2-117-942-361-1365l-46-80-5 275-5 275-28 57c-36 73-119 149-195 180-46 18-77 22-157 23-94 0-105-2-167-33-43-21-84-51-116-87l-50-54-11 44c-23 92-105 150-202 143-80-6-112-32-196-157-174-260-403-440-686-540-160-56-273-75-457-75-228-1-385 34-586 128-210 1e2-419 279-543 466-35 52-73 106-84 118-101 110-289 63-328-80-19-73-5-116 82-248 94-142 248-307 384-413 367-284 839-412 1298-352 508 67 939 333 1236 764l51 75v-651-652l-26-20-27-21-53 48c-29 26-103 93-164 150-142 132-191 157-310 157-71 0-94-4-140-26-74-34-120-76-156-141-26-47-29-63-29-138 0-95 7-111 118-282l56-87-57-16c-97-29-261-63-387-82-184-27-562-24-754 6-605 93-1128 362-1551 797-138 142-207 227-319 394-372 557-524 1274-410 1940 205 1205 1176 2116 2399 2249 128 14 536 6 660-14zm1615-3532c11-6 32-24 47-40l27-28 2-450c1-248 4-562 8-699 7-243 7-249 30-267 48-39 144-28 168 19 4 9 10 141 13 292l5 275 102-1c108-1 176-19 206-52 12-14 16-64 20-260 4-236 5-244 27-267 43-46 122-42 167 7 16 17 19 44 23 202l5 181 57 3c94 5 134-12 204-83l62-63 3-162 4-162 34-30c30-27 39-30 79-25 77 8 86 27 92 175l5 127 67-1c83-2 154-37 195-97 26-37 28-48 27-131-1-149-53-581-79-658-28-83-346-610-384-635-24-17-72-18-751-18-654 0-728 2-750 16-15 10-68 97-134 220-156 291-341 598-580 963-152 233-156 240-156 278 0 69 71 118 143 97 20-6 87-61 182-150 319-299 411-382 435-391 35-13 80-2 112 29l28 27 1 765c0 421 4 803 8 849 8 86 25 117 76 145 48 25 123 25 170 0z"/><path d="M2263 5036c-130-42-241-182-290-366-25-92-25-329 0-420 45-163 142-296 253-347 49-22 66-25 129-21 54 4 84 11 116 30 72 42 137 116 179 203 57 117 74 196 74 350 0 146-19 237-77 355-39 79-129 173-192 201-59 26-138 33-192 15z"/><path d="M3823 5036c-142-46-252-196-295-404-50-239 14-510 154-652 67-68 117-92 204-98 62-4 80-1 128 21 109 50 209 190 253 357 25 90 24 319-1 410-72 265-265 424-443 366z"/></g></svg>